<mxfile host="app.diagrams.net" modified="2022-03-15T01:28:48.830Z" agent="5.0 (Windows NT 10.0; WOW64) AppleWebKit/537.36 (KHTML, like Gecko) Chrome/70.0.3538.25 Safari/537.36 Core/1.70.3883.400 QQBrowser/10.8.4559.400" etag="49ldCtXXMmXH6AJeyMDf" version="16.4.3" type="github">
  <diagram id="n874y4ZXO1v49h_1077j" name="Page-1">
    <mxGraphModel dx="1422" dy="813" grid="1" gridSize="10" guides="1" tooltips="1" connect="1" arrows="1" fold="1" page="1" pageScale="1" pageWidth="827" pageHeight="1169" math="0" shadow="0">
      <root>
        <mxCell id="0" />
        <mxCell id="1" parent="0" />
        <mxCell id="s_PgR_v7MVxx5YZZE6EK-69" value="A.C. Milan" style="ellipse;whiteSpace=wrap;html=1;aspect=fixed;fontSize=15;" vertex="1" parent="1">
          <mxGeometry x="440.0026625407803" y="975" width="80" height="80" as="geometry" />
        </mxCell>
        <mxCell id="s_PgR_v7MVxx5YZZE6EK-70" value="entity" style="text;html=1;strokeColor=none;fillColor=none;align=center;verticalAlign=middle;whiteSpace=wrap;rounded=0;fontSize=16;" vertex="1" parent="1">
          <mxGeometry x="450.0026625407803" y="945" width="60" height="30" as="geometry" />
        </mxCell>
        <mxCell id="s_PgR_v7MVxx5YZZE6EK-74" value="head coach&lt;br&gt;（1997.07，&lt;br&gt;1998.06）" style="whiteSpace=wrap;html=1;aspect=fixed;fontSize=15;" vertex="1" parent="1">
          <mxGeometry x="607.2226625407803" y="970" width="90" height="90" as="geometry" />
        </mxCell>
        <mxCell id="s_PgR_v7MVxx5YZZE6EK-75" value="statement" style="text;html=1;strokeColor=none;fillColor=none;align=center;verticalAlign=middle;whiteSpace=wrap;rounded=0;fontSize=16;" vertex="1" parent="1">
          <mxGeometry x="622.2226625407803" y="940" width="60" height="30" as="geometry" />
        </mxCell>
        <mxCell id="s_PgR_v7MVxx5YZZE6EK-76" value="Fabio Capello" style="ellipse;whiteSpace=wrap;html=1;aspect=fixed;fontSize=15;" vertex="1" parent="1">
          <mxGeometry x="747.2226625407803" y="1015" width="80" height="80" as="geometry" />
        </mxCell>
        <mxCell id="s_PgR_v7MVxx5YZZE6EK-77" value="entity" style="text;html=1;strokeColor=none;fillColor=none;align=center;verticalAlign=middle;whiteSpace=wrap;rounded=0;fontSize=16;" vertex="1" parent="1">
          <mxGeometry x="757.2226625407803" y="985" width="60" height="30" as="geometry" />
        </mxCell>
        <mxCell id="s_PgR_v7MVxx5YZZE6EK-78" value="" style="endArrow=classic;html=1;rounded=0;fontSize=16;strokeWidth=1;entryX=0;entryY=0.5;entryDx=0;entryDy=0;exitX=1;exitY=0.5;exitDx=0;exitDy=0;" edge="1" parent="1" target="s_PgR_v7MVxx5YZZE6EK-74" source="s_PgR_v7MVxx5YZZE6EK-69">
          <mxGeometry width="50" height="50" relative="1" as="geometry">
            <mxPoint x="557.2226625407803" y="1070" as="sourcePoint" />
            <mxPoint x="607.2226625407803" y="1020" as="targetPoint" />
          </mxGeometry>
        </mxCell>
        <mxCell id="s_PgR_v7MVxx5YZZE6EK-81" value="head coach&lt;br&gt;（2006.07，&lt;br&gt;2007.06）" style="whiteSpace=wrap;html=1;aspect=fixed;fontSize=15;" vertex="1" parent="1">
          <mxGeometry x="607.2226625407803" y="1090" width="90" height="90" as="geometry" />
        </mxCell>
        <mxCell id="s_PgR_v7MVxx5YZZE6EK-83" value="entity" style="text;html=1;strokeColor=none;fillColor=none;align=center;verticalAlign=middle;whiteSpace=wrap;rounded=0;fontSize=16;" vertex="1" parent="1">
          <mxGeometry x="450.0026625407803" y="1065" width="60" height="30" as="geometry" />
        </mxCell>
        <mxCell id="s_PgR_v7MVxx5YZZE6EK-84" value="statement" style="text;html=1;strokeColor=none;fillColor=none;align=center;verticalAlign=middle;whiteSpace=wrap;rounded=0;fontSize=16;" vertex="1" parent="1">
          <mxGeometry x="622.2226625407803" y="1065" width="60" height="30" as="geometry" />
        </mxCell>
        <mxCell id="s_PgR_v7MVxx5YZZE6EK-89" value="Real Madrid CF" style="ellipse;whiteSpace=wrap;html=1;aspect=fixed;fontSize=15;" vertex="1" parent="1">
          <mxGeometry x="440.0026625407803" y="1095" width="80" height="80" as="geometry" />
        </mxCell>
        <mxCell id="s_PgR_v7MVxx5YZZE6EK-90" value="" style="endArrow=classic;html=1;rounded=0;fontSize=16;strokeWidth=1;entryX=0;entryY=0.5;entryDx=0;entryDy=0;" edge="1" parent="1" target="s_PgR_v7MVxx5YZZE6EK-76">
          <mxGeometry width="50" height="50" relative="1" as="geometry">
            <mxPoint x="697.22" y="1015" as="sourcePoint" />
            <mxPoint x="747.22" y="965" as="targetPoint" />
          </mxGeometry>
        </mxCell>
        <mxCell id="s_PgR_v7MVxx5YZZE6EK-92" value="" style="endArrow=classic;html=1;rounded=0;fontSize=16;strokeWidth=1;entryX=0;entryY=0.5;entryDx=0;entryDy=0;exitX=1;exitY=0.5;exitDx=0;exitDy=0;" edge="1" parent="1" source="s_PgR_v7MVxx5YZZE6EK-89" target="s_PgR_v7MVxx5YZZE6EK-81">
          <mxGeometry width="50" height="50" relative="1" as="geometry">
            <mxPoint x="520" y="1130" as="sourcePoint" />
            <mxPoint x="570" y="1080" as="targetPoint" />
          </mxGeometry>
        </mxCell>
        <mxCell id="s_PgR_v7MVxx5YZZE6EK-94" value="" style="endArrow=classic;html=1;rounded=0;fontSize=16;strokeWidth=1;exitX=1;exitY=0.5;exitDx=0;exitDy=0;" edge="1" parent="1" source="s_PgR_v7MVxx5YZZE6EK-81">
          <mxGeometry width="50" height="50" relative="1" as="geometry">
            <mxPoint x="697.22" y="1105" as="sourcePoint" />
            <mxPoint x="747.22" y="1055" as="targetPoint" />
          </mxGeometry>
        </mxCell>
      </root>
    </mxGraphModel>
  </diagram>
</mxfile>
